<svg width="512" height="512" viewBox="0 0 512 512" fill="none" xmlns="http://www.w3.org/2000/svg">
  <rect width="512" height="512" rx="128" fill="url(#rankforge_grad)"/>
  <path d="M152 128H272C320.601 128 360 167.399 360 216C360 254.686 335.097 287.545 300 299V300.5C330 309.5 352 336 352 368V384H288V370C288 346.804 269.196 328 246 328H224V384H152V128ZM224 268H268C296.719 268 320 244.719 320 216C320 187.281 296.719 164 268 164H224V268Z" fill="white"/>
  <path d="M304 128L384 128L384 208" stroke="#34D399" stroke-width="28" stroke-linecap="round" stroke-linejoin="round"/>
  <path d="M384 128L296 216" stroke="#34D399" stroke-width="28" stroke-linecap="round"/>
  <defs>
    <linearGradient id="rankforge_grad" x1="0" y1="0" x2="512" y2="512" gradientUnits="userSpaceOnUse">
      <stop stop-color="#059669"/>
      <stop offset="1" stop-color="#064E3B"/>
    </linearGradient>
  </defs>
</svg>
